<?xml version="1.0" encoding="utf-8"?>
<!-- Generator: Adobe Illustrator 19.2.1, SVG Export Plug-In . SVG Version: 6.00 Build 0)  -->
<svg version="1.1" id="Layer_1" xmlns="http://www.w3.org/2000/svg" xmlns:xlink="http://www.w3.org/1999/xlink" x="0px" y="0px"
	 viewBox="0 0 1088.9 544.7" style="enable-background:new 0 0 1088.9 544.7;" xml:space="preserve">
<style type="text/css">
	.st0{fill:#4A2642;}
	.st1{fill:#DA1E4E;}
	.st2{fill:url(#SVGID_1_);}
	.st3{fill:url(#SVGID_2_);}
	.st4{fill:url(#SVGID_3_);}
</style>
<g>
	<g>
		<path class="st0" d="M596.8,290.1c-9.5,0-16.6-7.1-16.6-16c0-8.9,6.9-16.1,16.8-16.1c6,0,9.6,2,12.8,4.8l-3.7,4
			c-2.6-2.3-5.4-3.9-9.1-3.9c-6.2,0-10.8,4.9-10.8,11c0,6.1,4.5,11.1,10.8,11.1c4,0,6.6-1.6,9.4-4l3.7,3.6
			C606.6,288,602.9,290.1,596.8,290.1z"/>
		<path class="st0" d="M629.5,290.1c-10,0-17-7.2-17-16c0-8.8,7.1-16.1,17.1-16.1c10,0,17,7.2,17,16
			C646.6,282.8,639.5,290.1,629.5,290.1z M629.5,262.9c-6.5,0-11,4.9-11,11c0,6.1,4.6,11.1,11.1,11.1c6.5,0,11-4.9,11-11
			C640.6,268,635.9,262.9,629.5,262.9z"/>
		<path class="st0" d="M668.4,281.9h-0.2L658,267.3v22.2h-5.6v-31.1h6.1l9.9,14.7l9.9-14.7h6.1v31.1h-5.7v-22.3L668.4,281.9z"/>
		<path class="st0" d="M707.7,281.9h-0.2l-10.2-14.6v22.2h-5.6v-31.1h6.1l9.9,14.7l9.9-14.7h6.1v31.1H718v-22.3L707.7,281.9z"/>
		<path class="st0" d="M758.3,276.1c0,9.3-5.5,14-14,14c-8.5,0-13.9-4.7-13.9-13.7v-17.9h5.7v17.7c0,5.8,3.1,8.9,8.2,8.9
			c5.1,0,8.2-2.9,8.2-8.7v-17.9h5.7V276.1z"/>
		<path class="st0" d="M787.8,258.5h5.6v31.1h-4.8l-18-22.1v22.1h-5.6v-31.1h5.3l17.5,21.5V258.5z"/>
		<path class="st0" d="M806.8,258.5v31.1H801v-31.1H806.8z"/>
		<path class="st0" d="M828.1,289.6h-5.8v-26H812v-5.1h26.5v5.1h-10.3V289.6z"/>
		<path class="st0" d="M858.7,289.6H853v-12.3l-13-18.8h6.8l9.1,13.8l9.2-13.8h6.6l-13,18.7V289.6z"/>
		<path class="st0" d="M593.8,332.5h-6.5v10h-5.7v-31.1h12.9c7.6,0,12.4,4.1,12.4,10.4C606.9,328.8,601,332.5,593.8,332.5z
			 M594,316.3h-6.7v11.2h6.7c4.3,0,7-2.3,7-5.6C601,318.2,598.3,316.3,594,316.3z"/>
		<path class="st0" d="M639.5,342.5h-6.1l-3.3-7.5h-15.4l-3.4,7.5h-5.9l14.3-31.3h5.3L639.5,342.5z M622.4,317.7l-5.6,12.4h11.2
			L622.4,317.7z"/>
		<path class="st0" d="M664.9,342.5l-8-10.8h-7.2v10.8H644v-31.1h14.5c7.5,0,12.1,3.8,12.1,9.9c0,5.2-3.2,8.3-7.8,9.5l8.8,11.8
			H664.9z M658,316.3h-8.3v10.4h8.4c4.1,0,6.7-2,6.7-5.2C664.8,318.1,662.3,316.3,658,316.3z"/>
		<path class="st0" d="M690.2,342.5h-5.8v-26H674v-5.1h26.5v5.1h-10.3V342.5z"/>
		<path class="st0" d="M728.2,311.4h5.6v31.1H729l-18-22.1v22.1h-5.6v-31.1h5.3l17.5,21.5V311.4z"/>
		<path class="st0" d="M765.2,316.2h-18.4v8.1h16.4v4.9h-16.4v8.4h18.7v4.9h-24.4v-31.1h24.2V316.2z"/>
		<path class="st0" d="M792,342.5l-8-10.8h-7.2v10.8h-5.7v-31.1h14.5c7.5,0,12.1,3.8,12.1,9.9c0,5.2-3.2,8.3-7.8,9.5l8.8,11.8H792z
			 M785.2,316.3h-8.3v10.4h8.4c4.1,0,6.7-2,6.7-5.2C791.9,318.1,789.4,316.3,785.2,316.3z"/>
		<path class="st0" d="M816.2,324.4c6.9,1.6,10.5,4,10.5,9.2c0,5.9-4.8,9.3-11.6,9.3c-5,0-9.7-1.6-13.6-5l3.4-3.9
			c3.1,2.6,6.2,4,10.3,4c3.5,0,5.8-1.6,5.8-4c0-2.3-1.3-3.5-7.4-4.8c-6.9-1.6-10.9-3.6-10.9-9.3c0-5.4,4.7-9.1,11.1-9.1
			c4.8,0,8.5,1.4,11.8,3.9l-3.1,4.1c-2.9-2.1-5.9-3.2-8.9-3.2c-3.4,0-5.3,1.6-5.3,3.7C808.5,321.9,810,323,816.2,324.4z"/>
		<path class="st0" d="M587.7,364.3v31.1h-5.7v-31.1H587.7z"/>
		<path class="st0" d="M618,364.3h5.6v31.1h-4.8l-18-22.1v22.1h-5.6v-31.1h5.3l17.5,21.5V364.3z"/>
		<path class="st0" d="M644.7,395.4h-5.8v-26h-10.3v-5.1H655v5.1h-10.3V395.4z"/>
		<path class="st0" d="M684.1,369.1h-18.4v8.1H682v4.9h-16.4v8.4h18.7v4.9h-24.4v-31.1h24.2V369.1z"/>
		<path class="st0" d="M710.9,395.4l-8-10.8h-7.2v10.8H690v-31.1h14.5c7.5,0,12.1,3.8,12.1,9.9c0,5.2-3.2,8.3-7.8,9.5l8.8,11.8
			H710.9z M704,369.2h-8.3v10.4h8.4c4.1,0,6.7-2,6.7-5.2C710.8,371,708.3,369.2,704,369.2z"/>
		<path class="st0" d="M745.3,364.3h5.6v31.1h-4.8l-18-22.1v22.1h-5.6v-31.1h5.3l17.5,21.5V364.3z"/>
		<path class="st0" d="M789.4,395.4h-6.1l-3.3-7.5h-15.4l-3.4,7.5h-5.9l14.3-31.3h5.3L789.4,395.4z M772.3,370.6l-5.6,12.4h11.2
			L772.3,370.6z"/>
		<path class="st0" d="M803.4,395.4h-5.8v-26h-10.3v-5.1h26.5v5.1h-10.3V395.4z"/>
		<path class="st0" d="M824.7,364.3v31.1H819v-31.1H824.7z"/>
		<path class="st0" d="M847.8,395.9c-10,0-17-7.2-17-16c0-8.8,7.1-16.1,17.1-16.1c10,0,17,7.2,17,16
			C864.9,388.6,857.8,395.9,847.8,395.9z M847.8,368.7c-6.5,0-11,4.9-11,11c0,6.1,4.6,11.1,11.1,11.1c6.5,0,11-4.9,11-11
			C858.9,373.8,854.3,368.7,847.8,368.7z"/>
		<path class="st0" d="M893.5,364.3h5.6v31.1h-4.8l-18-22.1v22.1h-5.6v-31.1h5.3l17.5,21.5V364.3z"/>
		<path class="st0" d="M937.6,395.4h-6.1l-3.3-7.5h-15.4l-3.4,7.5h-5.9l14.3-31.3h5.3L937.6,395.4z M920.5,370.6l-5.6,12.4h11.2
			L920.5,370.6z"/>
		<path class="st0" d="M942,364.3h5.7v26.1h17.1v5H942V364.3z"/>
	</g>
	<path class="st1" d="M243.5,277.3c1.5-2.4,3.2-4.6,5-6.8c8.9-12.9,18-23.4,20.9-38.8c5-26.8-13.7-84.1-13.7-84.1
		c-22.6,21.7-40.3,55.9-40.3,55.9C246.9,239.2,244.3,271.3,243.5,277.3z"/>
	<path class="st1" d="M243.4,277.4c0.7-8,2.2-62.9-86.3-89.5c0,0,2.6,32.8,12.2,68.8c0,0,51.4,3.8,63.1,46.6
		C234.7,293.9,238.4,285.1,243.4,277.4z"/>
	<path class="st1" d="M230.8,332.3c-0.2-1.9-0.3-3.8-0.4-5.8c-0.4-8,0.4-15.8,2.1-23.2c-21.3-51.7-107.8-38.6-107.8-38.6
		s18.8,40.9,65.8,91.9c36.4,39.5,79.9,45.8,102.2,46.2c-1.6,0-3.5-0.6-5.1-1c-1.7-0.4-3.4-0.9-5.1-1.4c-3.3-1.1-6.6-2.4-9.7-4
		c-6.3-3.2-12.2-7.4-17.3-12.3c-5.3-5.1-9.8-10.9-13.5-17.2c-3.9-6.6-6.8-13.8-8.7-21.2C232,341.2,231.3,336.8,230.8,332.3z"/>
	
		<linearGradient id="SVGID_1_" gradientUnits="userSpaceOnUse" x1="-56.2453" y1="262.3986" x2="-79.3663" y2="129.9217" gradientTransform="matrix(0.9948 -0.1017 0.1033 1.0101 237.7424 69.8262)">
		<stop  offset="7.132307e-03" style="stop-color:#DA1E4E"/>
		<stop  offset="0.633" style="stop-color:#E8575E"/>
		<stop  offset="1" style="stop-color:#F26D67"/>
	</linearGradient>
	<path class="st2" d="M216.7,358.2c-42.7-48.1-62.3-87.6-65.7-94.9c-15.2-0.2-26.4,1.4-26.4,1.4s18.8,40.9,65.8,91.9
		c34.7,37.6,75.9,45.1,98.9,46C267.4,397.3,240.6,385.1,216.7,358.2z"/>
	<g>
		<g>
			<path class="st0" d="M323.8,400.4c-40.2,0-70-32.3-70-73.1v-0.4c0-40.4,29.2-73.5,71.1-73.5c22.6,0,37.2,6.9,49,17.3
				c2.7,2.4,3,6.8,0.7,9.6l-10.8,13c-2.2,2.7-6.2,3-8.8,0.8c-9.1-7.5-18.6-11.9-30.2-11.9c-23,0-39.6,19.9-39.6,44.3v2.9
				c0,22.7,17.8,42.3,39.7,42.2c13.4,0,22.3-4.8,31.3-12.6c2.5-2.2,6.3-2,8.6,0.4l10.4,10.9c2.6,2.7,2.6,7.1-0.1,9.7
				C362.1,392.7,347.2,400.4,323.8,400.4z"/>
		</g>
		<path class="st0" d="M448.5,355.4h-22.8v34.6c0,4.5-3.5,8.1-7.8,8.1h-14.5c-4.3,0-7.8-3.6-7.8-8.1V267.1c0-6.2,4.8-11.2,10.8-11.2
			h45c32.5,0,52.2,20.1,52.2,49.1v0.4C503.7,338.3,479.1,355.4,448.5,355.4z M473.3,305.6c0-14-9.4-21.5-24.4-21.5h-23.2v43.5h23.8
			c15,0,23.8-9.3,23.8-21.5V305.6z"/>
		<path class="st0" d="M523.7,390.5V263.3c0-4.2,3.2-7.5,7.2-7.5h15.6c4,0,7.2,3.4,7.2,7.5v127.1c0,4.2-3.2,7.5-7.2,7.5h-15.6
			C527,398,523.7,394.6,523.7,390.5z"/>
	</g>
	
		<linearGradient id="SVGID_2_" gradientUnits="userSpaceOnUse" x1="-77.6787" y1="165.0736" x2="-77.6787" y2="96.0719" gradientTransform="matrix(0.9948 -0.1017 0.1033 1.0101 237.7424 69.8262)">
		<stop  offset="7.132307e-03" style="stop-color:#DA1E4E"/>
		<stop  offset="0.633" style="stop-color:#E8575E"/>
		<stop  offset="1" style="stop-color:#F26D67"/>
	</linearGradient>
	<path class="st3" d="M182.3,197.2c-7.5-3.4-15.8-6.5-25.1-9.3c0,0,2.6,32.8,12.2,68.8c0,0,11.4,0.9,24.7,6.2
		C186,232.5,183,204.7,182.3,197.2z"/>
	
		<linearGradient id="SVGID_3_" gradientUnits="userSpaceOnUse" x1="-31.1247" y1="138.0198" x2="29.0302" y2="83.4909" gradientTransform="matrix(0.9948 -0.1017 0.1033 1.0101 237.7424 69.8262)">
		<stop  offset="7.132307e-03" style="stop-color:#DA1E4E"/>
		<stop  offset="0.633" style="stop-color:#E8575E"/>
		<stop  offset="1" style="stop-color:#F26D67"/>
	</linearGradient>
	<path class="st4" d="M264.4,180c-4.1-17.8-8.8-32.3-8.8-32.3c-22.6,21.7-40.3,55.9-40.3,55.9c7.1,8,12.4,15.7,16.4,23.1
		C235.9,219.1,248.5,197.3,264.4,180z"/>
</g>
</svg>
